<?xml version="1.0" encoding="UTF-8"?>
<svg id="Layer_1" xmlns="http://www.w3.org/2000/svg" version="1.1" viewBox="0 0 1200 252.45">
  <!-- Generator: Adobe Illustrator 30.3.0, SVG Export Plug-In . SVG Version: 2.1.3 Build 182)  -->
  <defs>
    <style>
      .st0 {
        fill: #fff;
      }

      .st1 {
        fill: #ffc30f;
      }
    </style>
  </defs>
  <polygon class="st1" points="254.98 112.52 274.14 112.52 274.14 167.3 292.35 167.3 292.35 112.52 311.46 112.52 311.46 95.67 254.98 95.67 254.98 112.52"/>
  <rect class="st1" x="320.41" y="95.67" width="18.51" height="71.63"/>
  <polygon class="st1" points="395.24 144.64 394.89 144.64 375.08 95.67 353.22 95.67 353.22 167.3 370.93 167.3 370.93 135.83 370.58 125.13 370.93 125.13 387.89 167.3 402 167.3 418.96 125.13 419.36 125.13 419.01 135.83 419.01 167.3 436.61 167.3 436.61 95.67 414.8 95.67 395.24 144.64"/>
  <polygon class="st1" points="468.63 150.39 468.63 138.84 496.49 138.84 496.49 124.28 468.63 124.28 468.63 112.57 498.04 112.57 498.04 95.67 450.92 95.67 450.92 167.3 498.54 167.3 498.54 150.39 468.63 150.39"/>
  <g>
    <path class="st0" d="M564.57,157.22c-2.33,1.48-5.12,2.23-8.35,2.23-4.34,0-8.01-1.67-11.03-5-3.02-3.33-4.53-7.64-4.53-12.91s1.53-9.51,4.58-12.73c3.05-3.22,6.73-4.83,11.03-4.83,3.17,0,5.86.72,8.08,2.15,2.22,1.43,4.04,3.7,5.48,6.8l9.25-3.75c-2.03-4.83-4.98-8.5-8.83-10.98-3.85-2.48-8.48-3.73-13.88-3.73-7.6,0-13.9,2.52-18.88,7.55-4.99,5.04-7.48,11.54-7.48,19.51s2.48,14.53,7.45,19.68c4.97,5.15,11.27,7.73,18.91,7.73,5.27,0,9.85-1.2,13.76-3.6,3.9-2.4,7.02-6.15,9.35-11.25l-9.2-3.7c-1.47,3.07-3.37,5.34-5.7,6.83Z"/>
    <path class="st0" d="M612.14,114.47c-7.74,0-14.15,2.55-19.23,7.65-5.09,5.1-7.63,11.62-7.63,19.56s2.53,14.34,7.6,19.51c5.07,5.17,11.49,7.75,19.26,7.75s14.24-2.58,19.31-7.75c5.07-5.17,7.6-11.67,7.6-19.51s-2.55-14.37-7.65-19.51c-5.1-5.14-11.52-7.7-19.26-7.7ZM623.65,154.47c-3.1,3.32-6.94,4.98-11.51,4.98s-8.45-1.66-11.53-4.98c-3.08-3.32-4.63-7.58-4.63-12.78s1.55-9.54,4.65-12.81c3.1-3.27,6.94-4.9,11.51-4.9s8.36,1.63,11.48,4.9c3.12,3.27,4.68,7.54,4.68,12.81s-1.55,9.46-4.65,12.78Z"/>
    <path class="st0" d="M708.73,114.47c-3.7,0-7.07.83-10.1,2.48-3.04,1.65-5.52,4.08-7.45,7.28-1.27-3.03-3.29-5.42-6.05-7.15-2.77-1.73-5.99-2.6-9.65-2.6-3.3,0-6.45.86-9.45,2.58-3,1.72-5.24,3.91-6.7,6.58h-.3v-7.5h-10.4v51.17h10.91v-28.61c0-4.1,1.17-7.59,3.53-10.48,2.35-2.88,5.26-4.33,8.73-4.33s6.17,1.03,7.9,3.1c1.73,2.07,2.6,5.22,2.6,9.45v30.86h10.86v-28.76c0-4.1,1.18-7.57,3.53-10.4,2.35-2.83,5.26-4.25,8.73-4.25s6.27,1.03,8,3.08c1.73,2.05,2.6,5.18,2.6,9.38v30.96h10.81v-32.77c0-6.37-1.54-11.3-4.63-14.81-3.08-3.5-7.56-5.25-13.43-5.25Z"/>
    <path class="st0" d="M798.88,114.47c-3.7,0-7.07.83-10.1,2.48-3.04,1.65-5.52,4.08-7.45,7.28-1.27-3.03-3.29-5.42-6.05-7.15-2.77-1.73-5.99-2.6-9.65-2.6-3.3,0-6.45.86-9.45,2.58-3,1.72-5.24,3.91-6.7,6.58h-.3v-7.5h-10.4v51.17h10.91v-28.61c0-4.1,1.17-7.59,3.53-10.48,2.35-2.88,5.26-4.33,8.73-4.33s6.17,1.03,7.9,3.1c1.73,2.07,2.6,5.22,2.6,9.45v30.86h10.86v-28.76c0-4.1,1.18-7.57,3.53-10.4,2.35-2.83,5.26-4.25,8.73-4.25s6.27,1.03,8,3.08c1.73,2.05,2.6,5.18,2.6,9.38v30.96h10.81v-32.77c0-6.37-1.54-11.3-4.63-14.81-3.08-3.5-7.56-5.25-13.43-5.25Z"/>
    <path class="st0" d="M851.7,114.52c-7.54,0-13.7,2.57-18.48,7.7-4.79,5.14-7.18,11.64-7.18,19.51s2.41,14.5,7.23,19.58c4.82,5.09,11.08,7.63,18.78,7.63,5.47,0,10.09-1.04,13.86-3.13s6.87-5.23,9.3-9.43l-7.5-4.9c-1.97,3-4.11,5.18-6.43,6.53-2.32,1.35-5.04,2.03-8.18,2.03-4.74,0-8.64-1.68-11.71-5.03-2.51-2.74-3.98-6.28-4.43-10.58h39.15c.1-.83.17-1.48.23-1.93.05-.45.07-1.04.07-1.78,0-7.8-2.29-14.12-6.88-18.96-4.59-4.83-10.53-7.25-17.83-7.25ZM837.35,135.93c.64-2.94,1.83-5.43,3.57-7.45,2.75-3.2,6.33-4.8,10.73-4.8,4.03,0,7.26,1.17,9.68,3.5,2.42,2.33,3.81,5.25,4.18,8.75h-28.16Z"/>
    <path class="st0" d="M911.17,114.47c-3.07,0-6,.93-8.78,2.8-2.78,1.87-4.66,4.19-5.63,6.95h-.3v-8.1h-10.4v51.17h10.91v-27.86c0-4.1,1.25-7.55,3.75-10.35,2.5-2.8,5.57-4.2,9.21-4.2.8,0,1.76.1,2.88.3,1.12.2,2.73.63,4.83,1.3v-10.85c-1.5-.47-2.73-.77-3.68-.93-.95-.15-1.88-.23-2.78-.23Z"/>
    <path class="st0" d="M955,157.22c-2.33,1.48-5.12,2.23-8.35,2.23-4.33,0-8.01-1.67-11.03-5-3.02-3.33-4.53-7.64-4.53-12.91s1.53-9.51,4.58-12.73c3.05-3.22,6.73-4.83,11.03-4.83,3.17,0,5.86.72,8.08,2.15s4.04,3.7,5.48,6.8l9.25-3.75c-2.04-4.83-4.98-8.5-8.83-10.98-3.85-2.48-8.48-3.73-13.88-3.73-7.6,0-13.9,2.52-18.88,7.55-4.99,5.04-7.48,11.54-7.48,19.51s2.48,14.53,7.45,19.68,11.27,7.73,18.91,7.73c5.27,0,9.85-1.2,13.76-3.6,3.9-2.4,7.02-6.15,9.35-11.25l-9.2-3.7c-1.47,3.07-3.37,5.34-5.7,6.83Z"/>
    <path class="st0" d="M984.66,92.96c-1.87,0-3.47.63-4.8,1.9-1.33,1.27-2,2.85-2,4.75s.67,3.46,2,4.78c1.33,1.32,2.93,1.98,4.8,1.98s3.53-.66,4.8-1.98c1.27-1.32,1.9-2.91,1.9-4.78s-.63-3.48-1.9-4.75c-1.27-1.27-2.87-1.9-4.8-1.9Z"/>
    <rect class="st0" x="979.21" y="116.12" width="10.85" height="51.17"/>
    <path class="st0" d="M1040.58,119.9c-4.07-3.58-9.67-5.38-16.81-5.38-4.5,0-8.41.72-11.73,2.15-3.32,1.43-6.7,3.92-10.13,7.45l6.5,6c2.1-2.33,4.29-4.06,6.55-5.18,2.27-1.12,4.93-1.68,8-1.68,3.9,0,7.05,1.04,9.45,3.13,2.4,2.08,3.6,4.88,3.6,8.38v2.95c-1.6-.8-3.69-1.48-6.28-2.03-2.58-.55-5.28-.83-8.08-.83-6.37,0-11.56,1.55-15.56,4.65s-6,7.3-6,12.61c0,5,1.72,9.05,5.15,12.16,3.43,3.1,7.94,4.65,13.51,4.65,3.77,0,7.17-.86,10.2-2.58,3.04-1.72,5.29-3.89,6.75-6.53h.3v7.45h10.66v-32.42c0-6.4-2.04-11.4-6.1-14.98ZM1031.85,155.92c-2.79,2.82-6.25,4.23-10.38,4.23-3.07,0-5.59-.78-7.55-2.35-1.97-1.57-2.95-3.67-2.95-6.3,0-3,1.17-5.28,3.5-6.83,2.33-1.55,5.45-2.33,9.35-2.33,2.33,0,4.58.28,6.73.83,2.15.55,3.98,1.33,5.48,2.33v.1c0,4.07-1.39,7.51-4.18,10.33Z"/>
    <rect class="st0" x="1058.69" y="95.67" width="10.91" height="71.63"/>
  </g>
  <path class="st1" d="M173.29,124.61l9.5-16.46v-12.49h-17.91v43.77c0,4.17-1,7.42-3,9.75-2,2.33-4.84,3.5-8.5,3.5s-6.5-1.17-8.5-3.5c-2-2.33-3-5.59-3-9.75v-43.77h-18.21v43.57c0,8.7,2.63,15.86,7.88,21.46,5.25,5.6,12.53,8.4,21.84,8.4s16.32-2.74,21.56-8.23c5.23-5.49,7.85-12.7,7.85-21.64v-14.62h-9.5Z"/>
  <path class="st1" d="M244,102.39c-4.89-4.48-11.21-6.73-18.98-6.73h-29.51v9.52l11.21,19.42h-11.21v42.69h18.21v-20.91h11.31c7.2,0,13.39-2.21,18.56-6.63,5.17-4.42,7.75-10.61,7.75-18.58s-2.44-14.3-7.33-18.78ZM230.34,128.51c-1.82,1.78-4.18,2.68-7.08,2.68h-9.55v-19.61h9.7c2.83,0,5.15.92,6.95,2.75,1.8,1.83,2.7,4.22,2.7,7.15s-.91,5.24-2.73,7.03Z"/>
</svg>